# xmcd
#
# Track frame offsets:
#	150
#	30307
#	53827
#	82735
#	145562
#	169972
#	192767
#	215365
#
# Disc length: 3670 seconds
#
# Revision: 1
# Processed by: cddbd v1.5.2PL0 Copyright (c) Steve Scherf et al.
# Submitted via: EasyCDDAExtractor 16.0.8.2
#
DISCID=5c0e5408
DTITLE=Άγνωστος - Ελληνικά μεσαιωνικά τραγούδια 1
DYEAR=1993
DGENRE=Ελληνική μεσαιωνική
TTITLE0=The king throws a party [Χριστόδ. Χάλαρης]
TTITLE1=Whoever wants to learn music [Χριστόδ. Χάλαρης]
TTITLE2=John and the snakes [Χριστόδ. Χάλαρης]
TTITLE3=Atzemiko love song [Χριστόδ. Χάλαρης]
TTITLE4=A hunter appears [Χριστόδ. Χάλαρης]
TTITLE5=Wild bird become tame [Χριστόδ. Χάλαρης]
TTITLE6=A border guard was building a castle [Χριστόδ. Χάλαρης]
TTITLE7=Polychronism to Ioannis Petros Voevodas [Χριστόδ. Χάλαρης]
EXTD=
EXTT0=
EXTT1=
EXTT2=
EXTT3=
EXTT4=
EXTT5=
EXTT6=
EXTT7=
PLAYORDER=
